# xmcd CD database file
#
# Track frame offsets:
#	150
#	34274
#	61652
#	90678
#	102998
#	157896
#	202019
#	215742
#	240655
#	258355
#	274929
#	282955
#	303578
#	320301
#	341900
#
# Disc length: 4824 seconds
#
# Revision: 1
# Processed by: cddbd v1.5.1PL2 Copyright (c) Steve Scherf et al.
# Submitted via: CDex 1.51
#
DISCID=df12d60f
DTITLE=Al Jarreau - Glow
DYEAR=1990
DGENRE=Jazz
TTITLE0=Lionel Hampton and his Giants of Jazz - 1979 - Glad Hamp
TTITLE1=Lionel Hampton and his Giants of Jazz - 1979 - Ol'Man River
TTITLE2=Lionel Hampton and his Giants of Jazz - 1979 - Greasy Greens
TTITLE3=Lionel Hampton and his Giants of Jazz - 1979 - Mr P.C.
TTITLE4=Lionel Hampton and his Giants of Jazz - 1979 - Hamp's Got The Blues
TTITLE5=Lionel Hampton and his Giants of Jazz - 1979 - Salsa, ein Bürgermeister de Francoise
TTITLE6=Al Jarreau - Rainbow In Your Eyes
TTITLE7=Al Jarreau - Your Song
TTITLE8=Al Jarreau - Agua De Beber
TTITLE9=Al Jarreau - Have You Seen The Child
TTITLE10=Al Jarreau - Hold On Me
TTITLE11=Al Jarreau - Fire Rain
TTITLE12=Al Jarreau - Somebody's Watching You
TTITLE13=Al Jarreau - Milwaukee
TTITLE14=Al Jarreau - Glow
EXTD=YEAR: 1990
EXTT0=
EXTT1=
EXTT2=
EXTT3=
EXTT4=
EXTT5=
EXTT6=
EXTT7=
EXTT8=
EXTT9=
EXTT10=
EXTT11=
EXTT12=
EXTT13=
EXTT14=
PLAYORDER=
